<mxfile host="app.diagrams.net" modified="2021-08-02T13:30:57.163Z" agent="5.0 (Windows NT 10.0; Win64; x64) AppleWebKit/537.36 (KHTML, like Gecko) Chrome/92.0.4515.107 Safari/537.36" etag="1LiUh_Kk30Lr6TGfO66T" version="14.9.3" type="github">
  <diagram id="VqdJjphPVSq2Udl7x3P3" name="Page-1">
    <mxGraphModel dx="1422" dy="762" grid="1" gridSize="10" guides="1" tooltips="1" connect="1" arrows="1" fold="1" page="1" pageScale="1" pageWidth="827" pageHeight="1169" math="0" shadow="0">
      <root>
        <mxCell id="0" />
        <mxCell id="1" parent="0" />
        <mxCell id="_rNKC_Dzp_AstTdINph1-44" value="Flowchart" style="shape=table;childLayout=tableLayout;rowLines=0;columnLines=0;startSize=40;collapsible=0;recursiveResize=0;expand=0;pointerEvents=0;fontStyle=1" parent="1" vertex="1">
          <mxGeometry x="80" y="55" width="1250" height="530" as="geometry" />
        </mxCell>
        <mxCell id="_rNKC_Dzp_AstTdINph1-45" value="Arbeidsgruppe" style="swimlane;horizontal=0;points=[[0,0.5],[1,0.5]];portConstraint=eastwest;startSize=40;collapsible=0;recursiveResize=0;expand=0;pointerEvents=0;fillColor=#dae8fc;strokeColor=#6c8ebf;" parent="_rNKC_Dzp_AstTdINph1-44" vertex="1">
          <mxGeometry y="40" width="1250" height="166" as="geometry" />
        </mxCell>
        <mxCell id="_rNKC_Dzp_AstTdINph1-46" value="Forarbeid" style="swimlane;connectable=0;startSize=40;collapsible=0;recursiveResize=0;expand=0;pointerEvents=0;" parent="_rNKC_Dzp_AstTdINph1-45" vertex="1">
          <mxGeometry x="40" width="430" height="166" as="geometry" />
        </mxCell>
        <mxCell id="_rNKC_Dzp_AstTdINph1-64" style="edgeStyle=orthogonalEdgeStyle;rounded=0;orthogonalLoop=1;jettySize=auto;html=1;entryX=0;entryY=0.5;entryDx=0;entryDy=0;" parent="_rNKC_Dzp_AstTdINph1-46" source="_rNKC_Dzp_AstTdINph1-60" target="_rNKC_Dzp_AstTdINph1-62" edge="1">
          <mxGeometry relative="1" as="geometry" />
        </mxCell>
        <mxCell id="_rNKC_Dzp_AstTdINph1-60" value="Innhente data om eksisterende emner" style="rounded=0;whiteSpace=wrap;html=1;" parent="_rNKC_Dzp_AstTdINph1-46" vertex="1">
          <mxGeometry x="10" y="60" width="120" height="60" as="geometry" />
        </mxCell>
        <mxCell id="F4DgGvDCZBvtidA0wW8w-1" style="edgeStyle=orthogonalEdgeStyle;rounded=0;orthogonalLoop=1;jettySize=auto;html=1;exitX=1;exitY=0.5;exitDx=0;exitDy=0;" edge="1" parent="_rNKC_Dzp_AstTdINph1-46" source="_rNKC_Dzp_AstTdINph1-62" target="-_hWJmwtXpYTukLHLi6D-7">
          <mxGeometry relative="1" as="geometry" />
        </mxCell>
        <mxCell id="_rNKC_Dzp_AstTdINph1-62" value="Kartlegge muligheter for nytt emne" style="rounded=0;whiteSpace=wrap;html=1;" parent="_rNKC_Dzp_AstTdINph1-46" vertex="1">
          <mxGeometry x="150" y="60" width="120" height="60" as="geometry" />
        </mxCell>
        <mxCell id="-_hWJmwtXpYTukLHLi6D-7" value="Implementere endringer" style="rounded=0;whiteSpace=wrap;html=1;" parent="_rNKC_Dzp_AstTdINph1-46" vertex="1">
          <mxGeometry x="294" y="60" width="120" height="60" as="geometry" />
        </mxCell>
        <mxCell id="_rNKC_Dzp_AstTdINph1-47" value="Etablering av emnet" style="swimlane;connectable=0;startSize=40;collapsible=0;recursiveResize=0;expand=0;pointerEvents=0;" parent="_rNKC_Dzp_AstTdINph1-45" vertex="1">
          <mxGeometry x="470" width="330" height="166" as="geometry" />
        </mxCell>
        <mxCell id="F4DgGvDCZBvtidA0wW8w-5" value="" style="edgeStyle=orthogonalEdgeStyle;rounded=0;orthogonalLoop=1;jettySize=auto;html=1;" edge="1" parent="_rNKC_Dzp_AstTdINph1-47" source="_rNKC_Dzp_AstTdINph1-71" target="-_hWJmwtXpYTukLHLi6D-15">
          <mxGeometry relative="1" as="geometry" />
        </mxCell>
        <mxCell id="_rNKC_Dzp_AstTdINph1-71" value="Utarbeide emneplan" style="rounded=0;whiteSpace=wrap;html=1;" parent="_rNKC_Dzp_AstTdINph1-47" vertex="1">
          <mxGeometry x="40" y="60" width="120" height="60" as="geometry" />
        </mxCell>
        <mxCell id="-_hWJmwtXpYTukLHLi6D-15" value="Oppdatere emneplan og søke innpass i studieplan" style="rounded=0;whiteSpace=wrap;html=1;" parent="_rNKC_Dzp_AstTdINph1-47" vertex="1">
          <mxGeometry x="190" y="60" width="120" height="60" as="geometry" />
        </mxCell>
        <mxCell id="_rNKC_Dzp_AstTdINph1-48" value="Gjennomføring av emnet" style="swimlane;connectable=0;startSize=40;collapsible=0;recursiveResize=0;expand=0;pointerEvents=0;" parent="_rNKC_Dzp_AstTdINph1-45" vertex="1">
          <mxGeometry x="800" width="200" height="166" as="geometry" />
        </mxCell>
        <mxCell id="_rNKC_Dzp_AstTdINph1-72" value="Gjennomfører undervisning" style="rounded=0;whiteSpace=wrap;html=1;" parent="_rNKC_Dzp_AstTdINph1-48" vertex="1">
          <mxGeometry x="40" y="60" width="120" height="60" as="geometry" />
        </mxCell>
        <mxCell id="_rNKC_Dzp_AstTdINph1-49" value="Evaluering av emnet" style="swimlane;connectable=0;startSize=40;collapsible=0;recursiveResize=0;expand=0;pointerEvents=0;" parent="_rNKC_Dzp_AstTdINph1-45" vertex="1">
          <mxGeometry x="1000" width="250" height="166" as="geometry" />
        </mxCell>
        <mxCell id="_rNKC_Dzp_AstTdINph1-73" value="Evaulering av gjennomførelsen" style="rounded=0;whiteSpace=wrap;html=1;" parent="_rNKC_Dzp_AstTdINph1-49" vertex="1">
          <mxGeometry x="65" y="60" width="120" height="60" as="geometry" />
        </mxCell>
        <mxCell id="-_hWJmwtXpYTukLHLi6D-2" style="edgeStyle=orthogonalEdgeStyle;rounded=0;orthogonalLoop=1;jettySize=auto;html=1;" parent="_rNKC_Dzp_AstTdINph1-45" source="_rNKC_Dzp_AstTdINph1-72" target="_rNKC_Dzp_AstTdINph1-73" edge="1">
          <mxGeometry relative="1" as="geometry" />
        </mxCell>
        <mxCell id="-_hWJmwtXpYTukLHLi6D-10" style="edgeStyle=orthogonalEdgeStyle;rounded=0;orthogonalLoop=1;jettySize=auto;html=1;entryX=0;entryY=0.5;entryDx=0;entryDy=0;" parent="_rNKC_Dzp_AstTdINph1-45" source="-_hWJmwtXpYTukLHLi6D-7" target="_rNKC_Dzp_AstTdINph1-71" edge="1">
          <mxGeometry relative="1" as="geometry" />
        </mxCell>
        <mxCell id="-_hWJmwtXpYTukLHLi6D-16" style="edgeStyle=orthogonalEdgeStyle;rounded=0;orthogonalLoop=1;jettySize=auto;html=1;" parent="_rNKC_Dzp_AstTdINph1-45" source="-_hWJmwtXpYTukLHLi6D-15" target="_rNKC_Dzp_AstTdINph1-72" edge="1">
          <mxGeometry relative="1" as="geometry" />
        </mxCell>
        <mxCell id="_rNKC_Dzp_AstTdINph1-50" value="Referansegruppe" style="swimlane;horizontal=0;points=[[0,0.5],[1,0.5]];portConstraint=eastwest;startSize=40;collapsible=0;recursiveResize=0;expand=0;pointerEvents=0;strokeColor=#b85450;fillColor=#F8CECC;" parent="_rNKC_Dzp_AstTdINph1-44" vertex="1">
          <mxGeometry y="206" width="1250" height="168" as="geometry" />
        </mxCell>
        <mxCell id="_rNKC_Dzp_AstTdINph1-51" value="" style="swimlane;connectable=0;startSize=0;collapsible=0;recursiveResize=0;expand=0;pointerEvents=0;gradientColor=#ffffff;fillColor=#000000;" parent="_rNKC_Dzp_AstTdINph1-50" vertex="1">
          <mxGeometry x="40" width="430" height="168" as="geometry" />
        </mxCell>
        <mxCell id="_rNKC_Dzp_AstTdINph1-65" value="Innspill til forslag om nytt emne" style="rounded=0;whiteSpace=wrap;html=1;" parent="_rNKC_Dzp_AstTdINph1-51" vertex="1">
          <mxGeometry x="10" y="44" width="120" height="60" as="geometry" />
        </mxCell>
        <mxCell id="_rNKC_Dzp_AstTdINph1-52" value="" style="swimlane;connectable=0;startSize=0;collapsible=0;recursiveResize=0;expand=0;pointerEvents=0;" parent="_rNKC_Dzp_AstTdINph1-50" vertex="1">
          <mxGeometry x="470" width="330" height="168" as="geometry" />
        </mxCell>
        <mxCell id="-_hWJmwtXpYTukLHLi6D-3" value="Innspill og forslag til endringer i emneplen" style="rounded=0;whiteSpace=wrap;html=1;" parent="_rNKC_Dzp_AstTdINph1-52" vertex="1">
          <mxGeometry x="70" y="44" width="120" height="60" as="geometry" />
        </mxCell>
        <mxCell id="_rNKC_Dzp_AstTdINph1-53" value="" style="swimlane;connectable=0;startSize=0;collapsible=0;recursiveResize=0;expand=0;pointerEvents=0;" parent="_rNKC_Dzp_AstTdINph1-50" vertex="1">
          <mxGeometry x="800" width="200" height="168" as="geometry" />
        </mxCell>
        <mxCell id="_rNKC_Dzp_AstTdINph1-54" value="" style="swimlane;connectable=0;startSize=0;collapsible=0;recursiveResize=0;expand=0;pointerEvents=0;" parent="_rNKC_Dzp_AstTdINph1-50" vertex="1">
          <mxGeometry x="1000" width="250" height="168" as="geometry" />
        </mxCell>
        <mxCell id="_rNKC_Dzp_AstTdINph1-55" value="Instituttråd" style="swimlane;horizontal=0;points=[[0,0.5],[1,0.5]];portConstraint=eastwest;startSize=40;collapsible=0;recursiveResize=0;expand=0;pointerEvents=0;fillColor=#d5e8d4;strokeColor=#82b366;" parent="_rNKC_Dzp_AstTdINph1-44" vertex="1">
          <mxGeometry y="374" width="1250" height="156" as="geometry" />
        </mxCell>
        <mxCell id="_rNKC_Dzp_AstTdINph1-56" value="" style="swimlane;connectable=0;startSize=0;collapsible=0;recursiveResize=0;expand=0;pointerEvents=0;" parent="_rNKC_Dzp_AstTdINph1-55" vertex="1">
          <mxGeometry x="40" width="430" height="156" as="geometry" />
        </mxCell>
        <mxCell id="_rNKC_Dzp_AstTdINph1-66" value="Innspill til forslag om nytt emne" style="rounded=0;whiteSpace=wrap;html=1;" parent="_rNKC_Dzp_AstTdINph1-56" vertex="1">
          <mxGeometry x="10" y="53" width="120" height="60" as="geometry" />
        </mxCell>
        <mxCell id="_rNKC_Dzp_AstTdINph1-57" value="" style="swimlane;connectable=0;startSize=0;collapsible=0;recursiveResize=0;expand=0;pointerEvents=0;" parent="_rNKC_Dzp_AstTdINph1-55" vertex="1">
          <mxGeometry x="470" width="330" height="156" as="geometry" />
        </mxCell>
        <mxCell id="-_hWJmwtXpYTukLHLi6D-4" value="Innspill og forslag til endringer i emneplen" style="rounded=0;whiteSpace=wrap;html=1;" parent="_rNKC_Dzp_AstTdINph1-57" vertex="1">
          <mxGeometry x="70" y="48" width="120" height="60" as="geometry" />
        </mxCell>
        <mxCell id="_rNKC_Dzp_AstTdINph1-58" value="" style="swimlane;connectable=0;startSize=0;collapsible=0;recursiveResize=0;expand=0;pointerEvents=0;" parent="_rNKC_Dzp_AstTdINph1-55" vertex="1">
          <mxGeometry x="800" width="200" height="156" as="geometry" />
        </mxCell>
        <mxCell id="_rNKC_Dzp_AstTdINph1-59" value="" style="swimlane;connectable=0;startSize=0;collapsible=0;recursiveResize=0;expand=0;pointerEvents=0;" parent="_rNKC_Dzp_AstTdINph1-55" vertex="1">
          <mxGeometry x="1000" width="250" height="156" as="geometry" />
        </mxCell>
        <mxCell id="_rNKC_Dzp_AstTdINph1-68" style="edgeStyle=orthogonalEdgeStyle;rounded=0;orthogonalLoop=1;jettySize=auto;html=1;" parent="_rNKC_Dzp_AstTdINph1-44" source="_rNKC_Dzp_AstTdINph1-62" target="_rNKC_Dzp_AstTdINph1-65" edge="1">
          <mxGeometry relative="1" as="geometry">
            <Array as="points">
              <mxPoint x="240" y="260" />
            </Array>
          </mxGeometry>
        </mxCell>
        <mxCell id="-_hWJmwtXpYTukLHLi6D-14" style="edgeStyle=orthogonalEdgeStyle;rounded=0;orthogonalLoop=1;jettySize=auto;html=1;" parent="_rNKC_Dzp_AstTdINph1-44" source="_rNKC_Dzp_AstTdINph1-62" target="_rNKC_Dzp_AstTdINph1-66" edge="1">
          <mxGeometry relative="1" as="geometry">
            <mxPoint x="250" y="445" as="targetPoint" />
            <Array as="points">
              <mxPoint x="240" y="457" />
            </Array>
          </mxGeometry>
        </mxCell>
        <mxCell id="F4DgGvDCZBvtidA0wW8w-8" style="edgeStyle=orthogonalEdgeStyle;rounded=0;orthogonalLoop=1;jettySize=auto;html=1;entryX=0;entryY=0.5;entryDx=0;entryDy=0;" edge="1" parent="_rNKC_Dzp_AstTdINph1-44" source="_rNKC_Dzp_AstTdINph1-71" target="-_hWJmwtXpYTukLHLi6D-3">
          <mxGeometry relative="1" as="geometry">
            <Array as="points">
              <mxPoint x="520" y="280" />
            </Array>
          </mxGeometry>
        </mxCell>
        <mxCell id="F4DgGvDCZBvtidA0wW8w-9" style="edgeStyle=orthogonalEdgeStyle;rounded=0;orthogonalLoop=1;jettySize=auto;html=1;exitX=0.5;exitY=1;exitDx=0;exitDy=0;entryX=0.008;entryY=0.617;entryDx=0;entryDy=0;entryPerimeter=0;" edge="1" parent="_rNKC_Dzp_AstTdINph1-44" source="_rNKC_Dzp_AstTdINph1-71" target="-_hWJmwtXpYTukLHLi6D-4">
          <mxGeometry relative="1" as="geometry">
            <Array as="points">
              <mxPoint x="520" y="160" />
              <mxPoint x="520" y="459" />
            </Array>
          </mxGeometry>
        </mxCell>
        <mxCell id="F4DgGvDCZBvtidA0wW8w-3" style="edgeStyle=orthogonalEdgeStyle;rounded=0;orthogonalLoop=1;jettySize=auto;html=1;exitX=1;exitY=0.5;exitDx=0;exitDy=0;" edge="1" parent="1" source="_rNKC_Dzp_AstTdINph1-66">
          <mxGeometry relative="1" as="geometry">
            <mxPoint x="400" y="190" as="targetPoint" />
          </mxGeometry>
        </mxCell>
        <mxCell id="F4DgGvDCZBvtidA0wW8w-4" style="edgeStyle=orthogonalEdgeStyle;rounded=0;orthogonalLoop=1;jettySize=auto;html=1;exitX=1;exitY=0.5;exitDx=0;exitDy=0;" edge="1" parent="1" source="_rNKC_Dzp_AstTdINph1-65">
          <mxGeometry relative="1" as="geometry">
            <mxPoint x="400" y="190" as="targetPoint" />
          </mxGeometry>
        </mxCell>
        <mxCell id="F4DgGvDCZBvtidA0wW8w-12" style="edgeStyle=orthogonalEdgeStyle;rounded=0;orthogonalLoop=1;jettySize=auto;html=1;exitX=1;exitY=0.5;exitDx=0;exitDy=0;" edge="1" parent="1" source="-_hWJmwtXpYTukLHLi6D-3">
          <mxGeometry relative="1" as="geometry">
            <mxPoint x="720" y="190" as="targetPoint" />
          </mxGeometry>
        </mxCell>
        <mxCell id="F4DgGvDCZBvtidA0wW8w-13" style="edgeStyle=orthogonalEdgeStyle;rounded=0;orthogonalLoop=1;jettySize=auto;html=1;exitX=1;exitY=0.5;exitDx=0;exitDy=0;" edge="1" parent="1" source="-_hWJmwtXpYTukLHLi6D-4">
          <mxGeometry relative="1" as="geometry">
            <mxPoint x="720" y="190" as="targetPoint" />
            <Array as="points">
              <mxPoint x="760" y="507" />
              <mxPoint x="760" y="250" />
              <mxPoint x="720" y="250" />
            </Array>
          </mxGeometry>
        </mxCell>
      </root>
    </mxGraphModel>
  </diagram>
</mxfile>
